<svg width="72" height="72" viewBox="0 0 72 72" fill="none" xmlns="http://www.w3.org/2000/svg">
<path d="M57.9999 46H60.9999C60.9999 46 55.9999 56 37.9999 55C37.9999 55 30.9999 55 22.9999 47C22.9999 47 23.9999 54 18.9999 52C13.9999 50 12.9999 47 14.9999 40L39.9999 44" fill="#5C9E31"/>
<path d="M39 50L56 35L54 46L39 50Z" fill="#B1CC33"/>
<path d="M13.9999 41C13.7999 41 13.5999 40.9 13.3999 40.8L7.3999 36.8C6.8999 36.5 6.7999 35.9 7.0999 35.4C7.3999 34.9 7.9999 34.8 8.4999 35.1L11.3999 37L10.0999 34.4C9.8999 33.9 10.0999 33.3 10.4999 33.1C10.9999 32.9 11.5999 33.1 11.7999 33.5L14.7999 39.5C14.9999 39.9 14.8999 40.4 14.5999 40.7C14.4999 40.9 14.1999 41 13.9999 41Z" fill="black"/>
<path d="M24 60H21C20.4 60 20 59.6 20 59C20 58.4 20.4 58 21 58H23.3L26.2 50.9C26.4 50.4 27 50.1 27.5 50.3C28 50.5 28.3 51.1 28.1 51.6L25 59.3C24.8 59.8 24.4 60 24 60Z" fill="black"/>
<path d="M34.9999 60H30.9999C30.6999 60 30.3999 59.8 30.1999 59.6C29.9999 59.3 29.9999 59 30.0999 58.7L31.9999 53.8C32.1999 53.3 32.7999 53 33.2999 53.2C33.7999 53.4 34.0999 54 33.8999 54.5L32.3999 58H34.9999C35.5999 58 35.9999 58.4 35.9999 59C35.9999 59.6 35.5999 60 34.9999 60Z" fill="black"/>
<path d="M40.5 56.1C39.7 56.1 38.8 56.1 37.9 56C37.7 56 31.4 55.9 24 49.3C23.9 50.5 23.5 51.9 22.5 52.7C21.5 53.5 20.2 53.5 18.6 52.9C13.1 50.7 11.9 47.2 14 39.7C14.1 39.2 14.6 38.9 15.1 39L40.1 43C40.6 43.1 41 43.6 40.9 44.1C40.8 44.6 40.3 45 39.8 44.9L15.7 41C14 47.5 15.6 49.4 19.3 50.9C20.2 51.3 20.8 51.3 21.2 51C22.1 50.3 22.1 48 21.9 47C21.8 46.6 22.1 46.2 22.4 46C22.8 45.8 23.2 45.9 23.6 46.2C31.3 53.9 37.9 54 38 54C51.1 54.7 57 49.6 59.1 47H58C57.4 47 57 46.6 57 46C57 45.4 57.4 45 58 45H61C61.3 45 61.7 45.2 61.9 45.5C62.1 45.8 62.1 46.2 61.9 46.5C61.7 46.9 56.9 56.1 40.5 56.1Z" fill="black"/>
<path d="M56 60H52C51.7 60 51.4 59.9 51.2 59.6C51 59.4 51 59.1 51 58.8L55.4 36.6L39.6 49.8C39.2 50.2 38.5 50.1 38.2 49.7C37.8 49.3 37.9 48.6 38.3 48.3L56.3 33.3C56.6 33 57.1 33 57.5 33.2C57.9 33.4 58.1 33.8 58 34.3L53.2 58H56C56.6 58 57 58.4 57 59C57 59.6 56.6 60 56 60Z" fill="black"/>
</svg>
