<svg width="83" height="82" viewBox="0 0 83 82" fill="none" xmlns="http://www.w3.org/2000/svg">
<g clip-path="url(#clip0_38_57)">
<path d="M78.9839 13.7721V20.5874H68.761V30.8103H61.9457V20.5874H51.7228V13.7721H61.9457V3.54919H68.761V13.7721H78.9839ZM50.019 37.6256C52.8405 37.6256 55.1304 35.3357 55.1304 32.5141C55.1304 29.6926 52.8405 27.4027 50.019 27.4027C47.1975 27.4027 44.9075 29.6926 44.9075 32.5141C44.9075 35.3357 47.1975 37.6256 50.019 37.6256ZM61.9457 48.6459L60.1976 46.7035C57.4919 43.6878 52.7689 43.6878 50.0565 46.7035L47.8245 49.1911L31.277 30.8103L21.054 42.168V20.5874H44.9075V13.7721H21.054C17.2886 13.7721 14.2388 16.8219 14.2388 20.5874V61.4791C14.2388 65.2445 17.2886 68.2943 21.054 68.2943H61.9457C65.7112 68.2943 68.761 65.2445 68.761 61.4791V37.6256H61.9457V48.6459Z" fill="#B6B6B6"/>
</g>
<defs>
<clipPath id="clip0_38_57">
<rect width="81.7833" height="81.7833" fill="white" transform="translate(0.608398 0.141602)"/>
</clipPath>
</defs>
</svg>
