<svg width="64" height="42" viewBox="0 0 64 42" fill="none" xmlns="http://www.w3.org/2000/svg">
<path d="M7.955 0H40.0638C42.24 0 44.2238 0.922041 45.665 2.39043C47.1138 3.86773 48.0175 5.90794 48.0175 8.12135V8.49577L61.6775 2.33057C62.5138 1.95615 63.49 2.34331 63.8575 3.19403C63.9525 3.41435 63.9987 3.64614 63.9987 3.87283L64 38.1284C64 39.0594 63.2575 39.8159 62.3438 39.8159C62.0588 39.8159 61.7913 39.742 61.5563 39.6121L48.0175 33.2368V33.8799C48.0175 36.087 47.1075 38.1195 45.6575 39.5981L45.6475 39.6083C44.2038 41.0754 42.215 42 40.0638 42H7.955C5.795 42 3.80375 41.0843 2.355 39.6108C0.90375 38.1297 0 36.1035 0 33.8799V8.12135C0 5.88756 0.8975 3.85627 2.34125 2.38406C3.785 0.9144 5.7725 0 7.955 0ZM33.5137 19.2495V22.7518C33.5137 22.9683 33.3387 23.1465 33.1275 23.1465H26.1138V30.2911C26.1138 30.5076 25.94 30.6846 25.7275 30.6846H22.2887C22.0763 30.6846 21.9025 30.5089 21.9025 30.2911V23.1465H14.89C14.6775 23.1465 14.5025 22.9695 14.5025 22.7518V19.2495C14.5025 19.0317 14.675 18.8547 14.89 18.8547H21.9025V11.7102C21.9025 11.4924 22.075 11.3154 22.2887 11.3154H25.7275C25.8301 11.3157 25.9283 11.3575 26.0007 11.4315C26.0731 11.5055 26.1138 11.6057 26.1138 11.7102V18.8547H33.1275C33.3412 18.8547 33.5137 19.0343 33.5137 19.2495ZM48.1338 12.1279V29.583L60.6888 35.4948V6.4632L48.1338 12.1279ZM40.0638 3.3736H7.955C7.34047 3.37302 6.73187 3.49601 6.16409 3.73553C5.5963 3.97505 5.0805 4.32638 4.64625 4.7694C3.8025 5.62904 3.2775 6.81725 3.2775 8.12135V33.8799C3.2775 35.1764 3.805 36.357 4.64625 37.2115C5.50375 38.0864 6.68125 38.6264 7.955 38.6264H40.0638C41.3313 38.6264 42.5025 38.0801 43.3537 37.2115C44.2075 36.3429 44.74 35.1598 44.74 33.8799V8.12135C44.74 6.8338 44.21 5.64305 43.36 4.77577C42.515 3.91613 41.3463 3.3736 40.0638 3.3736Z" fill="#B6B6B6"/>
</svg>
