<svg width="20" height="21" viewBox="0 0 20 21" fill="none" xmlns="http://www.w3.org/2000/svg">
<path d="M0.559099 0.587054C0.917199 0.211164 1.40282 0 1.90917 0C2.41553 0 2.90115 0.211164 3.25925 0.587054L10.0115 7.67695L16.7638 0.587054C17.124 0.221816 17.6063 0.0197177 18.107 0.0242861C18.6077 0.0288544 19.0866 0.239725 19.4407 0.611479C19.7947 0.983234 19.9956 1.48613 19.9999 2.01185C20.0043 2.53757 19.8118 3.04405 19.464 3.42221L12.7117 10.5121L19.464 17.602C19.8118 17.9802 20.0043 18.4866 19.9999 19.0124C19.9956 19.5381 19.7947 20.041 19.4407 20.4127C19.0866 20.7845 18.6077 20.9954 18.107 20.9999C17.6063 21.0045 17.124 20.8024 16.7638 20.4372L10.0115 13.3473L3.25925 20.4372C2.8991 20.8024 2.41673 21.0045 1.91605 20.9999C1.41536 20.9954 0.936413 20.7845 0.582361 20.4127C0.228309 20.041 0.0274804 19.5381 0.0231296 19.0124C0.0187787 18.4866 0.211254 17.9802 0.559099 17.602L7.31138 10.5121L0.559099 3.42221C0.201108 3.04621 0 2.5363 0 2.00463C0 1.47296 0.201108 0.963059 0.559099 0.587054Z" fill="white"/>
</svg>
