<?xml version="1.0" encoding="utf-8"?>
<!-- Generator: Adobe Illustrator 25.4.1, SVG Export Plug-In . SVG Version: 6.00 Build 0)  -->
<svg version="1.1" id="Слой_1" xmlns="http://www.w3.org/2000/svg" xmlns:xlink="http://www.w3.org/1999/xlink" x="0px" y="0px"
	 viewBox="0 0 28 28" style="enable-background:new 0 0 28 28;" xml:space="preserve">
<style type="text/css">
	.st0{fill:#DD0000;}
</style>
<path class="st0" d="M14,27.8C6.4,27.8,0.2,21.6,0.2,14C0.2,6.4,6.4,0.2,14,0.2c7.6,0,13.8,6.2,13.8,13.8
	C27.8,21.6,21.6,27.8,14,27.8z M14,2.2C7.5,2.2,2.2,7.5,2.2,14c0,6.5,5.3,11.8,11.8,11.8c6.5,0,11.8-5.3,11.8-11.8
	C25.8,7.5,20.5,2.2,14,2.2z M19.7,15H8.3c-0.6,0-1-0.4-1-1s0.4-1,1-1h11.3c0.6,0,1,0.4,1,1S20.2,15,19.7,15z"/>
</svg>
