<svg xmlns="http://www.w3.org/2000/svg" viewBox="0 0 533.3 533.3">
  <path d="M633.3,666.7H500a33.4,33.4,0,0,1,0-66.7h52.9l-76.5-76.4a33.4,33.4,0,0,1,47.2-47.2L600,552.9V500a33.4,33.4,0,0,1,66.7,0V633.1c0,.9-.1,1.7-.1,2.6h0a35.8,35.8,0,0,1-2.1,9.4,33.2,33.2,0,0,1-19.4,19.4,35.8,35.8,0,0,1-9.4,2.1h-2.4ZM300,333.3a33.3,33.3,0,0,1-23.6-9.7L200,247.1V300a33.4,33.4,0,0,1-66.7,0V166.7a33,33,0,0,1,2.8-13.3,33.7,33.7,0,0,1,5.7-8.9,17.2,17.2,0,0,1,2.7-2.7,33.7,33.7,0,0,1,8.9-5.7,33,33,0,0,1,13.3-2.8H300a33.4,33.4,0,0,1,0,66.7H247.1l76.5,76.4A33.3,33.3,0,0,1,300,333.3Z" transform="translate(-133.3 -133.3)"/>
  <path d="M166.7,666.7h-2.5a36.7,36.7,0,0,1-9.4-2.1h-.1a34.8,34.8,0,0,1-11.6-7.6,32.4,32.4,0,0,1-7.1-10.6,33.2,33.2,0,0,1-2.7-13V500a33.4,33.4,0,0,1,66.7,0v52.9l76.4-76.5a33.4,33.4,0,0,1,47.2,47.2L247.1,600H300a33.4,33.4,0,0,1,0,66.7H166.7ZM500,333.3a33.3,33.3,0,0,1-23.6-56.9L552.9,200H500a33.4,33.4,0,0,1,0-66.7H633.3a33.2,33.2,0,0,1,13,2.7,32.4,32.4,0,0,1,10.6,7.1,34.8,34.8,0,0,1,7.6,11.6h0a36.7,36.7,0,0,1,2.1,9.4h0c0,.9.1,1.7.1,2.6V300a33.4,33.4,0,0,1-66.7,0V247.1l-76.4,76.5A33.3,33.3,0,0,1,500,333.3Z" transform="translate(-133.3 -133.3)"/>
</svg>
