<svg width="22" height="22" viewBox="0 0 22 22" fill="none" xmlns="http://www.w3.org/2000/svg">
<path d="M9.4124 18.475H1.67907C1.19574 18.475 0.712402 18.1125 0.712402 17.5083C0.712402 16.9042 1.0749 16.5417 1.67907 16.5417H9.53324C10.0166 16.5417 10.4999 16.9042 10.4999 17.5083C10.4999 18.1125 10.0166 18.475 9.4124 18.475Z" fill="white"/>
<path d="M17.6291 21.8583C14.6082 21.8583 13.3999 20.65 13.3999 17.6292C13.3999 14.6083 14.6082 13.4 17.6291 13.4C20.6499 13.4 21.8582 14.6083 21.8582 17.6292C21.8582 20.65 20.6499 21.8583 17.6291 21.8583ZM17.6291 15.2125C15.6957 15.2125 15.2124 15.6958 15.2124 17.6292C15.2124 19.5625 15.6957 20.0458 17.6291 20.0458C19.5624 20.0458 20.0457 19.5625 20.0457 17.6292C20.0457 15.6958 19.5624 15.2125 17.6291 15.2125Z" fill="white"/>
<path d="M20.8916 5.78749H13.0375C12.5541 5.78749 12.0708 5.42499 12.0708 4.82082C12.0708 4.21666 12.4333 3.85416 13.0375 3.85416H20.8916C21.375 3.85416 21.8583 4.21666 21.8583 4.82082C21.8583 5.42499 21.4958 5.78749 20.8916 5.78749Z" fill="white"/>
<path d="M4.94157 9.17083C1.92074 9.17083 0.712402 7.96249 0.712402 4.94166C0.712402 1.92083 1.92074 0.712494 4.94157 0.712494C7.9624 0.712494 9.17073 1.92083 9.17073 4.94166C9.17073 7.96249 7.9624 9.17083 4.94157 9.17083ZM4.94157 2.52499C3.00824 2.52499 2.5249 3.00833 2.5249 4.94166C2.5249 6.87499 3.00824 7.35833 4.94157 7.35833C6.8749 7.35833 7.35823 6.87499 7.35823 4.94166C7.35823 3.00833 6.8749 2.52499 4.94157 2.52499Z" fill="white"/>
</svg>
