<svg xmlns="http://www.w3.org/2000/svg" viewBox="0 0 600 600">
  <path d="M560,700H240c-41.3,0-64,0-85.4-10.9a99.8,99.8,0,0,1-43.7-43.7c-4.7-9.1-7.6-19.2-9.1-31.5a2.8,2.8,0,0,1-.1-.9c-1.7-13.9-1.7-30.3-1.7-53V240c0-41.3,0-64,10.9-85.4a99.3,99.3,0,0,1,43.7-43.7C176,100,198.7,100,240,100H560c41.3,0,64,0,85.4,10.9a99.8,99.8,0,0,1,43.7,43.7C700,176,700,198.7,700,240V549.8h0V560c0,41.3,0,64-10.9,85.4a99.3,99.3,0,0,1-43.7,43.7c-9.2,4.7-19.3,7.6-31.9,9.2h-.7C599,700,582.6,700,560,700ZM172.5,618.9a33.1,33.1,0,0,0,12.4,10.8c7.1,3.6,26.2,3.6,55.1,3.6H530.3l-78.4-78.5h0l-55.5-55c-20.8-20.6-34.5-34.2-42.2-36.7a33.6,33.6,0,0,0-20.8.2c-7.6,2.6-21.1,16.6-41.4,37.6l-.6.6Zm350.2-87.5,96,96.2a33.2,33.2,0,0,0,11-12.5c3.5-6.8,3.6-24.6,3.6-51.6l-18.2-18.3-.3-.4c-20.4-21.1-33.8-35-41.4-37.6a33.6,33.6,0,0,0-20.8-.3C546.5,508.8,536.7,517.7,522.7,531.4ZM240,166.7c-28.9,0-48,0-55.1,3.6a33.2,33.2,0,0,0-14.6,14.6c-3.6,7.1-3.6,26.2-3.6,55.1V531l77.6-76.7c28.8-29.8,44.8-46.3,67.7-54.1a99.1,99.1,0,0,1,62.3-.6c23.1,7.2,39.4,23.4,69,52.8l32.2,31.9c22.4-21.9,37.3-34.7,57-40.9a98.7,98.7,0,0,1,62.4.7c13.9,4.7,25.2,12.7,38.4,24.9V240c0-28.9,0-48-3.6-55.1a33.2,33.2,0,0,0-14.6-14.6c-7.1-3.6-26.2-3.6-55.1-3.6ZM500,400A100,100,0,1,1,600,300,100.2,100.2,0,0,1,500,400Zm0-133.3A33.3,33.3,0,1,0,533.3,300,33.3,33.3,0,0,0,500,266.7Z" transform="translate(-100 -100)"/>
</svg>
