<?xml version="1.0" standalone="no"?>
<!DOCTYPE svg PUBLIC "-//W3C//DTD SVG 20010904//EN"
 "http://www.w3.org/TR/2001/REC-SVG-20010904/DTD/svg10.dtd">
<svg version="1.0" xmlns="http://www.w3.org/2000/svg"
 width="232.000000pt" height="232.000000pt" viewBox="0 0 232.000000 232.000000"
 preserveAspectRatio="xMidYMid meet">

<g transform="translate(0.000000,232.000000) scale(0.100000,-0.100000)"
fill="#000000" stroke="none">
<path d="M380 1850 l0 -110 75 0 75 0 2 -348 3 -349 162 181 162 181 1 278 0
277 -240 0 -240 0 0 -110z"/>
<path d="M1327 1768 c-84 -106 -218 -276 -299 -378 -81 -102 -226 -279 -322
-395 l-176 -210 0 -247 0 -248 175 0 175 0 0 255 0 254 62 73 c34 40 64 77 68
81 4 4 121 -143 260 -328 l253 -335 213 0 c118 0 214 2 214 5 0 3 -154 198
-341 433 -188 235 -346 432 -350 438 -6 7 110 151 309 385 174 207 323 383
331 392 13 16 -1 17 -203 17 l-216 0 -153 -192z"/>
</g>
</svg>
