<svg width="31" height="31" viewBox="0 0 31 31" fill="none" xmlns="http://www.w3.org/2000/svg">
<path d="M27.9943 23.4517C27.7336 23.4661 27.4959 23.4661 27.2352 23.4661C23.0641 23.4661 19.1383 21.9463 16.1862 19.1733C13.2342 16.4003 11.6087 12.7054 11.6087 8.78717C11.6087 6.55437 12.1378 4.40079 13.1269 2.44888C13.5716 1.58457 14.1007 0.763476 14.7217 0C13.6329 0.108039 12.5825 0.324116 11.5704 0.619423C4.86124 2.60734 0 8.49187 0 15.4496C0 24.0423 7.40688 31 16.5543 31C21.6149 31 26.1311 28.8752 29.1674 25.5188C29.8575 24.7481 30.4863 23.9198 31 23.0267C30.0339 23.2644 29.0294 23.4085 27.9943 23.4517Z" fill="white"/>
</svg>
