<svg width="32" height="32" viewBox="0 0 32 32" fill="none" xmlns="http://www.w3.org/2000/svg">
<path fill-rule="evenodd" clip-rule="evenodd" d="M28.5336 1.66147C26.8738 0.00174248 24.1829 0.00173691 22.5231 1.66147L2.46656 21.7181C1.87326 22.3114 1.46884 23.067 1.30429 23.8897L0.472612 28.0482C0.0761042 30.0307 1.82404 31.7787 3.80658 31.3822L7.96498 30.5504C8.78774 30.386 9.54339 29.9815 10.1367 29.3882L30.1932 9.3316C31.853 7.67187 31.853 4.98093 30.1932 3.32119L28.5336 1.66147ZM24.5265 3.66493C25.0799 3.1117 25.9768 3.1117 26.5301 3.66493L28.1898 5.32467C28.7431 5.87791 28.7431 6.77488 28.1898 7.32813L24.405 11.1129L20.7419 7.44968L24.5265 3.66493ZM18.7383 9.45316L4.47002 23.7215C4.27225 23.9193 4.13746 24.1712 4.0826 24.4455L3.25092 28.6038L7.40932 27.7721C7.68357 27.7173 7.93546 27.5825 8.13322 27.3848L22.4015 13.1164L18.7383 9.45316Z" fill="#0056D7"/>
</svg>
