<svg width="26" height="30" viewBox="0 0 26 30" fill="none" xmlns="http://www.w3.org/2000/svg">
<path d="M7.42735 15.4981C8.7349 17.4679 10.6368 18.9736 12.9575 18.9736C15.5161 18.9736 17.5764 17.1282 18.8782 14.8642C20.2933 13.6925 21.3122 12.1245 21.7367 10.3472C21.7538 10.2906 21.7764 10.2396 21.7877 10.183C21.8499 9.94528 21.884 9.69623 21.8952 9.45849C21.9348 9.14717 21.9518 8.84151 21.9518 8.52453C21.9518 3.8151 17.8254 0 12.7254 0C12.6745 0 12.6235 0.00566038 12.5726 0.00566038C12.3179 0 12.0688 0.0113208 11.8141 0.045283C7.14428 0.469811 3.50465 4.10377 3.50465 8.52453C3.49905 11.4113 5.05565 13.9528 7.42735 15.4981ZM16.184 16.4264C15.2443 17.2811 14.1462 17.8245 12.9519 17.8245C11.8764 17.8245 10.8802 17.383 10.0085 16.6754C8.58207 15.515 7.48962 13.6358 6.98018 11.7679L6.87263 11.3999L6.49339 11.349C6.04056 11.2867 5.45754 10.766 5.23679 9.89994C5.08396 9.31126 5.14056 8.72825 5.38962 8.3207C5.48018 8.16787 5.63301 7.98674 5.87641 7.92447C5.91037 7.91881 5.93867 7.91315 5.9783 7.91315C6.15377 8.50749 6.45943 9.04523 6.90094 9.48674C8.6783 11.2641 12.0009 10.8282 14.316 8.51315C14.7406 8.08862 15.0916 7.63579 15.3915 7.16032C16.6538 7.93013 18.1141 7.95277 18.9746 7.0924C19.0198 7.04711 19.0481 6.99051 19.0934 6.93957C19.1274 7.09806 19.1557 7.25655 19.184 7.4207L19.2633 7.95843L19.8067 7.90749C19.8859 7.90183 19.9708 7.90183 20.0274 7.91315C20.2651 7.97542 20.4236 8.16787 20.5142 8.30938C20.752 8.71126 20.8086 9.3056 20.6671 9.88862C20.4463 10.7603 19.8633 11.2754 19.4104 11.3377L19.0312 11.3886L18.9293 11.7565C18.4424 13.5057 17.4632 15.2547 16.184 16.4264Z" fill="#4F4F4F"/>
<path d="M19.5633 17.1962C18.85 18.4075 18.0292 19.4321 16.9425 19.9868C14.6953 21.1359 13.0255 22.0699 13.0255 22.0699L13.0198 22.0641V22.0415L12.9972 22.0528L12.9746 22.0415V22.0641L12.9689 22.0698C12.9689 22.0698 11.2991 21.1358 9.05192 19.9867C7.95946 19.432 7.13871 18.4075 6.43116 17.1962C3.10286 18.549 0.782104 21.6565 0.782104 24.3735C0.782104 27.232 0.782104 29.9999 0.782104 29.9999H12.9746H13.0198H25.2179C25.2179 29.9999 25.2179 27.232 25.2179 24.3735C25.2066 21.6566 22.8915 18.5491 19.5633 17.1962Z" fill="#4F4F4F"/>
</svg>
