<svg width="33" height="33" viewBox="0 0 33 33" fill="none" xmlns="http://www.w3.org/2000/svg">
<path d="M30.994 6.22672H26.7954V5.77548C26.7954 5.06926 26.2229 4.49675 25.5165 4.49675H22.2434V3.43539C22.2434 2.72917 21.6709 2.15649 20.9645 2.15649H12.0352C11.3289 2.15649 10.7564 2.72909 10.7564 3.43539V4.49683H7.48335C6.77705 4.49683 6.20453 5.06926 6.20453 5.77556V6.2268H2.00599C0.898078 6.2268 0 7.12496 0 8.23279V28.8374C0 29.9452 0.898078 30.8434 2.00599 30.8434H30.994C32.1019 30.8434 33 29.9452 33 28.8374V8.23271C33 7.12488 32.1019 6.22672 30.994 6.22672ZM11.3982 4.77004H21.6019V6.22672H11.3982V4.77004ZM30.1021 11.0684L18.4923 18.9508C18.4282 19.9969 17.5621 20.826 16.5 20.826C15.438 20.826 14.5719 19.9969 14.5077 18.9508L2.89786 11.0684C2.43958 10.7573 2.32029 10.1336 2.63144 9.67522C2.94259 9.21702 3.5663 9.09773 4.02466 9.40888L15.4212 17.1467C15.7326 16.9464 16.1022 16.8287 16.4999 16.8287C16.8976 16.8287 17.2674 16.9464 17.5786 17.1467L28.9752 9.4088C29.4336 9.09765 30.0573 9.21711 30.3684 9.67513C30.6796 10.1335 30.5603 10.7573 30.1021 11.0684Z" fill="#4F4F4F"/>
</svg>
