<svg width="30" height="30" viewBox="0 0 30 30" fill="none" xmlns="http://www.w3.org/2000/svg">
<path d="M29.2386 13.1325H26.3157V11.904C26.3157 11.4834 25.9749 11.1426 25.5543 11.1426H24.2854C24.054 10.1692 23.6779 9.24789 23.1622 8.39124L24.0722 7.46637C24.3637 7.17012 24.3637 6.69479 24.0722 6.39845L21.9396 4.23022C21.7965 4.08464 21.6009 4.00271 21.3967 4.00271C21.1926 4.00271 20.9971 4.08474 20.8539 4.23012L19.9576 5.14139C19.1206 4.62342 18.2204 4.24464 17.269 4.01012V2.70515C17.269 2.28454 16.9282 1.94373 16.5076 1.94373H13.4925C13.0719 1.94373 12.7311 2.28454 12.7311 2.70515V4.01022C11.7799 4.24464 10.8794 4.62342 10.042 5.14159L9.1465 4.23104C9.00335 4.08545 8.80782 4.00352 8.60365 4.00352C8.39959 4.00352 8.20386 4.08545 8.06081 4.23093L5.92812 6.39855C5.63655 6.69479 5.63655 7.17022 5.92802 7.46647L6.83787 8.39124C6.32233 9.24779 5.94629 10.169 5.71472 11.1425H4.44569C4.02508 11.1425 3.68426 11.4833 3.68426 11.9039V13.1324H0.761421C0.340812 13.1324 0 13.4732 0 13.8938V27.2948C0 27.7154 0.340812 28.0562 0.761421 28.0562H29.2386C29.6592 28.0562 30 27.7154 30 27.2948V13.8938C30 13.4733 29.6592 13.1325 29.2386 13.1325ZM5.20711 12.6655H6.33614C6.70731 12.6655 7.02447 12.3977 7.0868 12.0317C7.29056 10.8345 7.74396 9.7221 8.43411 8.72566C8.64244 8.42505 8.60751 8.01885 8.35107 7.75814L7.53898 6.93266L8.60345 5.85073L9.39726 6.65794C9.66031 6.92515 10.0785 6.96139 10.3836 6.74312C11.3607 6.04322 12.4512 5.58373 13.6244 5.37743C13.9884 5.31337 14.2539 4.99713 14.2539 4.62748V3.46657H15.7462V4.62738C15.7462 4.99703 16.0116 5.31317 16.3755 5.37733C17.5492 5.58393 18.6395 6.04342 19.6159 6.74281C19.9208 6.96129 20.3392 6.92494 20.6021 6.65784L21.3967 5.85002L22.4612 6.93235L21.6488 7.75814C21.3924 8.01885 21.3575 8.42515 21.5658 8.72576C22.2563 9.7223 22.7096 10.8346 22.9129 12.0316C22.9751 12.3976 23.2923 12.6656 23.6637 12.6656H24.7929V13.1326H19.0467C18.8923 11.0056 17.1372 9.32251 15.0001 9.32251C12.863 9.32251 11.1077 11.0056 10.9533 13.1326H5.20711V12.6655ZM12.4818 13.1325C12.6299 11.8464 13.7024 10.8452 15.0005 10.8452C16.2979 10.8452 17.3701 11.8464 17.5182 13.1325H12.4818ZM28.4772 26.5334H1.52284V14.6552H28.4772V26.5334Z" fill="#4F4F4F"/>
<path d="M4.11164 18.0055H5.78677C6.20738 18.0055 6.54819 17.6647 6.54819 17.2441C6.54819 16.8235 6.20738 16.4827 5.78677 16.4827H4.11164C3.69103 16.4827 3.35022 16.8235 3.35022 17.2441C3.35022 17.6646 3.69103 18.0055 4.11164 18.0055Z" fill="#4F4F4F"/>
<path d="M9.13703 18.0055H10.8122C11.2328 18.0055 11.5736 17.6647 11.5736 17.2441C11.5736 16.8235 11.2328 16.4827 10.8122 16.4827H9.13703C8.71642 16.4827 8.37561 16.8235 8.37561 17.2441C8.37561 17.6646 8.71642 18.0055 9.13703 18.0055Z" fill="#4F4F4F"/>
<path d="M14.1624 18.0055H15.8375C16.2582 18.0055 16.599 17.6647 16.599 17.2441C16.599 16.8235 16.2582 16.4827 15.8375 16.4827H14.1624C13.7418 16.4827 13.401 16.8235 13.401 17.2441C13.401 17.6646 13.7418 18.0055 14.1624 18.0055Z" fill="#4F4F4F"/>
<path d="M19.1878 18.0055H20.8629C21.2835 18.0055 21.6244 17.6647 21.6244 17.2441C21.6244 16.8235 21.2835 16.4827 20.8629 16.4827H19.1878C18.7672 16.4827 18.4264 16.8235 18.4264 17.2441C18.4264 17.6646 18.7672 18.0055 19.1878 18.0055Z" fill="#4F4F4F"/>
<path d="M24.2132 18.0055H25.8883C26.3089 18.0055 26.6498 17.6647 26.6498 17.2441C26.6498 16.8235 26.3089 16.4827 25.8883 16.4827H24.2132C23.7926 16.4827 23.4518 16.8235 23.4518 17.2441C23.4518 17.6646 23.7926 18.0055 24.2132 18.0055Z" fill="#4F4F4F"/>
<path d="M4.11164 24.7061H5.78677C6.20738 24.7061 6.54819 24.3653 6.54819 23.9446C6.54819 23.524 6.20738 23.1832 5.78677 23.1832H4.11164C3.69103 23.1832 3.35022 23.524 3.35022 23.9446C3.35022 24.3652 3.69103 24.7061 4.11164 24.7061Z" fill="#4F4F4F"/>
<path d="M20.8629 23.1832H9.11164C8.69103 23.1832 8.35022 23.524 8.35022 23.9446C8.35022 24.3653 8.69103 24.7061 9.11164 24.7061H20.8629C21.2835 24.7061 21.6243 24.3653 21.6243 23.9446C21.6243 23.524 21.2835 23.1832 20.8629 23.1832Z" fill="#4F4F4F"/>
<path d="M25.8883 23.1832H24.2132C23.7926 23.1832 23.4518 23.524 23.4518 23.9446C23.4518 24.3653 23.7926 24.7061 24.2132 24.7061H25.8883C26.3089 24.7061 26.6498 24.3653 26.6498 23.9446C26.6498 23.524 26.3089 23.1832 25.8883 23.1832Z" fill="#4F4F4F"/>
<path d="M5.86292 20.5944C5.86292 21.015 6.20373 21.3559 6.62434 21.3559H8.29946C8.72007 21.3559 9.06088 21.015 9.06088 20.5944C9.06088 20.1738 8.72007 19.833 8.29946 19.833H6.62434C6.20373 19.833 5.86292 20.1738 5.86292 20.5944Z" fill="#4F4F4F"/>
<path d="M10.8883 20.5944C10.8883 21.015 11.2291 21.3559 11.6497 21.3559H13.3249C13.7455 21.3559 14.0863 21.015 14.0863 20.5944C14.0863 20.1738 13.7455 19.833 13.3249 19.833H11.6497C11.2291 19.833 10.8883 20.1738 10.8883 20.5944Z" fill="#4F4F4F"/>
<path d="M15.9137 20.5944C15.9137 21.015 16.2545 21.3559 16.6751 21.3559H18.3502C18.7709 21.3559 19.1117 21.015 19.1117 20.5944C19.1117 20.1738 18.7709 19.833 18.3502 19.833H16.6751C16.2545 19.833 15.9137 20.1738 15.9137 20.5944Z" fill="#4F4F4F"/>
<path d="M20.9391 20.5944C20.9391 21.015 21.2799 21.3559 21.7005 21.3559H23.3756C23.7962 21.3559 24.1371 21.015 24.1371 20.5944C24.1371 20.1738 23.7962 19.833 23.3756 19.833H21.7005C21.2799 19.833 20.9391 20.1738 20.9391 20.5944Z" fill="#4F4F4F"/>
</svg>
