<svg width="31" height="31" viewBox="0 0 31 31" fill="none" xmlns="http://www.w3.org/2000/svg">
<path d="M27.9078 18.2948L30.881 15.7577L30.9603 15.6982L30.881 15.6387L27.9871 13.1611C27.5709 12.7052 27.4718 12.3286 27.6303 11.7538L28.9187 8.06714L28.9584 7.96803L28.8592 7.94821L25.0933 7.23466C24.5185 7.09591 24.2211 6.75895 24.0824 6.20396L23.349 2.3587L23.3292 2.25959L23.2301 2.29923L19.6227 3.56778C19.0479 3.6867 18.6713 3.6867 18.1559 3.15153L15.5594 0.0792839L15.4999 0L15.4404 0.0792839L12.8043 3.13171C12.4673 3.48849 12.1303 3.66688 11.615 3.44885L7.80937 2.12084L7.73009 2.0812L7.71027 2.18031L6.95707 6.1445C6.89761 6.60038 6.81832 6.85806 6.12459 6.95716L2.27932 7.69054L2.18022 7.71036L2.21986 7.80946L3.4884 11.4169C3.80554 12.2295 3.62715 12.3485 3.09198 12.8043L0.118835 15.3613L0.0395508 15.4207L0.118835 15.4802L3.0127 17.9578C3.3893 18.3146 3.56768 18.6515 3.36947 19.3849L2.08111 23.0716L2.04147 23.1707L2.14057 23.1905L5.88674 23.9041C6.56065 24.0428 6.77868 24.3996 6.89761 24.9546L7.61116 28.7999L7.63098 28.899L7.73009 28.8593L11.3177 27.5908C11.9321 27.4322 12.3286 27.5115 12.725 27.9872L15.2819 30.9207L15.3413 31L15.4008 30.9207L17.8784 28.0269C18.2352 27.6701 18.6316 27.452 19.3055 27.6701L22.9724 28.9584L23.0715 28.9981L23.0913 28.899L23.8049 25.1528C23.9436 24.5185 24.1815 24.3203 24.8554 24.1419L28.7007 23.4284L28.7998 23.4086L28.7601 23.3095L27.4916 19.7219C27.3132 19.0876 27.3727 18.7308 27.9078 18.2948ZM15.4999 26.1439C9.65272 26.1439 4.89569 21.4067 4.89569 15.5396C4.89569 9.69246 9.65272 4.95524 15.4999 4.95524C15.6585 4.95524 15.817 4.95524 15.9954 4.97506C21.6246 5.23274 26.1041 9.87084 26.1041 15.5595C26.1041 21.4067 21.3471 26.1439 15.4999 26.1439Z" fill="#FFC700"/>
<path d="M15.9162 6.32289V24.7564C15.7775 24.7564 15.6387 24.7762 15.5 24.7762C20.594 24.7762 24.7366 20.6535 24.7366 15.5396C24.7366 10.6042 20.8318 6.56074 15.9162 6.32289Z" fill="#FFC700"/>
<path d="M15.9162 6.32289C15.7775 6.32289 15.6387 6.30307 15.5 6.30307C10.406 6.30307 6.26343 10.4258 6.26343 15.5396C6.26343 20.6336 10.3862 24.7762 15.5 24.7762C15.6387 24.7762 15.7775 24.7762 15.9162 24.7564V6.32289Z" fill="#FFC700"/>
</svg>
