<svg width="31" height="31" viewBox="0 0 31 31" fill="none" xmlns="http://www.w3.org/2000/svg">
<path d="M21.4307 9.7262C21.4365 9.7262 21.4442 9.7262 21.452 9.7262C21.6545 9.7262 21.8424 9.78917 21.9964 9.89767L21.9935 9.89573C22.1059 9.99358 22.1815 10.1311 22.1999 10.2861V10.289C22.2192 10.4072 22.2299 10.5429 22.2299 10.6814C22.2299 10.7444 22.228 10.8064 22.2231 10.8684V10.8596C22.0051 13.1546 21.0596 18.7201 20.5791 21.2892C20.3757 22.3771 19.9756 22.7414 19.5881 22.7762C18.7463 22.8547 18.1069 22.2202 17.2912 21.6854C16.0144 20.8475 15.2927 20.3263 14.0536 19.5096C12.6209 18.567 13.5499 18.0468 14.3656 17.2001C14.5797 16.9773 18.291 13.6012 18.3636 13.2951C18.3675 13.2767 18.3694 13.2563 18.3694 13.235C18.3694 13.1595 18.3413 13.0907 18.2958 13.0384C18.2454 13.0054 18.1825 12.987 18.1166 12.987C18.073 12.987 18.0313 12.9957 17.9926 13.0103L17.9945 13.0093C17.8666 13.0384 15.8271 14.3862 11.8759 17.0529C11.4448 17.3929 10.9004 17.608 10.3075 17.6331H10.3017C9.46177 17.5314 8.69937 17.3445 7.97571 17.078L8.0474 17.1013C7.13871 16.8049 6.41699 16.6489 6.47899 16.1471C6.51193 15.8862 6.87166 15.6191 7.55818 15.3459C11.7871 13.5034 14.6071 12.2889 16.0183 11.7025C17.5751 10.8761 19.3798 10.196 21.2776 9.75526L21.4297 9.72523L21.4307 9.7262ZM15.4322 0.99292C7.38962 1.01229 0.876709 7.53683 0.876709 15.5823C0.876709 23.6394 7.40802 30.1717 15.4661 30.1717C23.5241 30.1717 30.0555 23.6404 30.0555 15.5823C30.0555 7.53683 23.5426 1.01229 15.5019 0.99292H15.5C15.4774 0.99292 15.4548 0.99292 15.4322 0.99292Z" fill="#4F4F4F"/>
</svg>
