<?xml version="1.0" encoding="utf-8"?><!-- Uploaded to: SVG Repo, www.svgrepo.com, Generator: SVG Repo Mixer Tools -->
<svg fill="#000000" width="800px" height="800px" viewBox="0 0 24 24" id="turn-back-left-sign" data-name="Flat Color" xmlns="http://www.w3.org/2000/svg" class="icon flat-color"><path id="primary" d="M13.5,2A8.5,8.5,0,0,0,5,10.5V14H3a1,1,0,0,0-.77,1.64l5,6a1,1,0,0,0,1.54,0l5-6A1,1,0,0,0,13,14H11V10.5a2.5,2.5,0,0,1,5,0V21a1,1,0,0,0,1,1h4a1,1,0,0,0,1-1V10.5A8.51,8.51,0,0,0,13.5,2Z" style="fill: rgb(0, 0, 0);"></path></svg>