<svg xmlns="http://www.w3.org/2000/svg" viewBox="0 0 666.7 466.7">
  <path d="M426.7,633.3h-220c-41.3,0-64,0-85.4-10.9a98.3,98.3,0,0,1-43.7-43.7c-10.9-21.4-10.9-44.1-10.9-85.4V306.7c0-41.3,0-64,10.9-85.4a98.3,98.3,0,0,1,43.7-43.7c21.4-10.9,44.1-10.9,85.4-10.9h220c41.2,0,64,0,85.4,10.9a99.3,99.3,0,0,1,43.7,43.7c7.7,15.1,9.9,30.8,10.6,53.3l35.7-21.4c31.6-19,49-29.4,70.8-27.4a66.8,66.8,0,0,1,47.5,27c12.9,17.6,12.9,37.9,12.9,74.7v145c0,36.8,0,57.1-12.9,74.8a67,67,0,0,1-47.5,26.9c-21.8,2-39.2-8.4-70.8-27.4l-35.7-21.4c-.7,22.5-2.9,38.2-10.6,53.3a99.3,99.3,0,0,1-43.7,43.7C490.7,633.3,467.9,633.3,426.7,633.3Zm-220-400c-28.9,0-48,0-55.2,3.7A32.8,32.8,0,0,0,137,251.5c-3.7,7.2-3.7,26.3-3.7,55.2V493.3c0,28.9,0,48,3.7,55.2A32.8,32.8,0,0,0,151.5,563c7.2,3.7,26.3,3.7,55.2,3.7h220c28.9,0,48,0,55.1-3.7a33.5,33.5,0,0,0,14.6-14.5c3.6-7.2,3.6-26.3,3.6-55.2V306.7c0-28.9,0-48-3.6-55.2A33.5,33.5,0,0,0,481.8,237c-7.1-3.7-26.2-3.7-55.1-3.7ZM665.2,510.4Zm-98.5-62.6,69.7,41.8c11.3,6.8,23,13.8,29.5,16.9.8-7.2.8-20.8.8-34v-145c0-13.2,0-26.8-.8-34-6.5,3.1-18.2,10.1-29.5,16.9l-69.7,41.8ZM669.6,292.1Zm-4.4-2.5Z" transform="translate(-66.7 -166.7)"/>
</svg>
