<svg width="30" height="30" viewBox="0 0 30 30" fill="none" xmlns="http://www.w3.org/2000/svg">
<g clip-path="url(#clip0_25_428)">
<path d="M16.9131 0.475586C9.69888 0.475586 3.82872 6.34581 3.82872 13.5613C3.82872 16.1617 4.59983 18.5793 5.91289 20.6184L0.601388 25.8462L0.612966 25.8604C-0.207086 26.7087 -0.207086 28.0578 0.629676 28.8907C1.46131 29.7301 2.81298 29.734 3.66263 28.9113L3.67552 28.928L8.84672 23.8431C11.0725 25.5938 13.8712 26.6494 16.9157 26.6494C24.1299 26.6494 30.0001 20.7792 30.0001 13.5638C29.9974 6.34581 24.1273 0.475586 16.9131 0.475586ZM2.78338 28.0952C2.40877 28.4659 1.80374 28.4672 1.42651 28.0913C1.05579 27.7167 1.05316 27.1117 1.42651 26.7396C1.79987 26.3676 2.40489 26.365 2.7795 26.7383C3.15285 27.113 3.15285 27.7193 2.78338 28.0952ZM24.8199 11.7513C24.6795 12.7348 22.9944 13.8574 23.4154 14.8396C23.8363 15.8218 23.1348 16.9443 23.1348 16.9443C23.1348 16.9443 22.4332 20.1717 22.0122 20.5927C21.5912 21.0136 19.0655 22.1375 19.6255 22.839C20.1893 23.5394 21.8706 22.7 23.5557 22.2765C23.9715 22.1722 24.3874 22.0435 24.7851 21.8955C22.7267 23.8406 19.9602 25.0417 16.9131 25.0417C14.3166 25.0417 11.926 24.1637 10.0002 22.7052L14.5136 18.2665L20.4469 18.2498L22.0675 12.1864L21.4239 11.5363L18.2042 14.7637L15.0554 11.6174L18.2776 8.394L17.634 7.74648L11.5694 9.37363L11.5501 15.1408L11.5153 15.1061L7.08565 19.465C6.30039 18.1635 5.76871 16.6998 5.55243 15.1306C6.52568 14.6234 8.11034 13.7711 8.68063 13.2974C9.52128 12.5958 8.3974 12.3152 8.25966 11.8929C8.11935 11.4719 8.25966 10.4897 8.25966 9.50749C8.25966 8.52398 10.2216 8.52267 10.9231 7.54172C11.4252 6.8427 10.506 5.30178 9.93318 4.46502C11.8693 2.97561 14.2856 2.07833 16.9118 2.07833C17.6069 2.07833 18.2853 2.15042 18.947 2.27014C19.1427 3.47894 19.5469 5.14214 20.327 5.57601C21.5886 6.27634 23.1347 7.82108 23.696 8.10175C24.2611 8.38367 24.9588 10.7704 24.8199 11.7513ZM26.505 12.5945C25.8098 12.0963 25.2408 9.92715 25.6631 9.22557C25.9154 8.80202 26.5745 8.43255 27.0611 8.20469C27.9094 9.80481 28.3948 11.6264 28.3948 13.5613C28.3948 14.1418 28.3368 14.7095 28.2544 15.2669C28.0073 14.2796 27.5284 13.3296 26.505 12.5945Z" fill="#4F4F4F"/>
</g>
<defs>
<clipPath id="clip0_25_428">
<rect width="30" height="30" fill="white"/>
</clipPath>
</defs>
</svg>
